<?xml version="1.0" encoding="utf-8"?>
<!-- Generator: Adobe Illustrator 21.0.0, SVG Export Plug-In . SVG Version: 6.00 Build 0)  -->
<svg version="1.1" id="Layer_1" xmlns="http://www.w3.org/2000/svg" xmlns:xlink="http://www.w3.org/1999/xlink" x="0px" y="0px"
	 viewBox="0 0 435.1 104" style="enable-background:new 0 0 435.1 104;" xml:space="preserve">
<style type="text/css">
	.st0{fill-rule:evenodd;clip-rule:evenodd;fill:#4F4E4E;}
	.st1{fill:#4F4E4E;}
	.st2{clip-path:url(#SVGID_2_);}
	.st3{clip-path:url(#SVGID_6_);}
	.st4{clip-path:url(#SVGID_10_);}
	.st5{clip-path:url(#SVGID_14_);}
	.st6{clip-path:url(#SVGID_18_);}
	.st7{fill:#4F4F4F;}
</style>
<g>
	<path class="st0" d="M65.7,57.7l-3.9,21.6H19.2v-1.7h1.3c1.9,0,3.3-0.6,4.2-1.8c0.8-1.2,1-2.3,1-6.8V20.4c0-4.4-0.2-5.6-1-6.8
		c-0.8-1.2-2.2-1.7-4.2-1.7h-1.3v-1.7h39.4v19.4H57c-0.4-4.7-2-9.6-4.4-12.1c-3-3-5-4-13.6-4h-1.7v29.8c6.9-0.3,9.4-3.5,10.1-13.9
		h1.7v30.9h-1.7c-0.4-10-3.2-13.4-10.1-13.5v21.4c0,6.5,0.8,7.7,5.3,7.7c11.4,0,17.9-6,21.2-18.1l0.1-0.2H65.7L65.7,57.7z"/>
	<path class="st0" d="M78.4,41.2c4.2-5.2,7.3-7.2,11.2-7.2c3.2,0,5.9,1.7,7.3,4.2c0.8,1.6,1.4,3.3,1.5,5c0.2,2.6,0.3,6.1,0.3,10.4
		v18.2c0,4.8,0.7,5.5,2.9,5.7v1.7H85v-1.7c2.2-0.3,2.8-0.9,2.8-5.7V51.2c0-2.6-0.1-5.8-0.2-6.9c-0.3-2.7-1.2-4-3-4
		c-1.8,0-3.6,1.4-6.2,5v26.6c0,4.8,0.6,5.4,2.7,5.7v1.7H64.5v-1.7c2.2-0.2,2.9-0.9,2.9-5.7V43c0-5-0.7-5.8-2.9-6.1v-1.7h13.9V41.2
		L78.4,41.2z"/>
	<path class="st0" d="M127,37.7h-9.4v28.8c0,4.8,0.1,6,0.4,6.9c0.4,0.8,1.4,1.6,2.2,1.6c1.2,0,4.4-1.3,5.8-4.4l1.3,0.9
		c-2,5.4-6.7,9.1-12,9.1c-3.6,0-6.7-2.3-7.8-5.8c-0.4-1.7-0.7-3.4-0.8-5.5c-0.1-2.4-0.1-5.7-0.1-9.3V37.7h-5.3v-2.3
		c5.4-4.3,12.3-9.8,14.9-16.2h1.4v16.1h9.4V37.7L127,37.7z"/>
	<path class="st0" d="M140.4,43h0.2c1.9-5.7,4.9-8.9,8.1-8.9c2.9,0,4.7,2.6,4.7,6.6c0,3.7-1.7,6.2-4.5,6.2c-1.3,0-2-0.4-3.4-1.9
		c-1.1-1-1.7-1.5-2.4-1.5c-1,0-1.7,1-2.1,3c-0.4,1.9-0.6,7.6-0.6,13.5v11.5c0,5.4,0.3,6,3.7,6h0.7v1.7h-19.2v-1.7h0.5
		c2.9,0,3.2-0.6,3.2-5.7V43.5c0-5.1-0.3-5.8-3.2-5.8h-0.5v-2.4h14.8V43L140.4,43z"/>
	<path class="st0" d="M183.4,67c-2.1,8.6-7.6,13.5-14.9,13.5c-9.5,0-16.2-9.4-16.2-22.7c0-13.5,7.2-23.7,16.7-23.7
		c8.6,0,14.5,8.4,14.5,20.9v0.8h-19.6c0.3,10.9,4.2,17.8,10,17.8c3.3,0,5.8-2.2,8.2-7.3L183.4,67L183.4,67z M173,52.5
		c0-1,0.1-1.5,0.1-2.4c0-1.8-0.1-4.1-0.3-5.8c-0.4-4.8-1.7-7-4.1-7c-3.3,0-5,4.5-5,13.4v1.8H173L173,52.5z"/>
	<path class="st0" d="M198.8,40.3h0.2c1.8-4.1,4.8-6.3,8.4-6.3c8,0,13.6,8.8,13.6,22.3c0,14.2-6,24.1-13.8,24.1
		c-2.8,0-4.9-1.2-8.2-4.8l-0.1-0.3h-0.2v16.2c0,5.4,0.3,6,3.7,6h1v1.7H184v-1.7h0.6c2.9,0,3.2-0.6,3.2-5.7V42.7
		c0-5.1-0.3-5.8-3.2-5.8H184v-1.7h14.9V40.3L198.8,40.3z M198.8,71c0.4,0.9,0.9,1.4,1.6,2.3c1.6,1.9,2.6,2.6,3.9,2.5
		c1.3-0.1,2.4-1.3,3-3.4c1-3.6,1.9-8.2,1.9-15.2c0-11.5-2.3-17.6-5.5-17.4c-1.8,0.1-3.5,2-4.8,5.4V71L198.8,71z"/>
	<path class="st0" d="M235.8,43h0.2c1.9-5.7,4.8-8.9,8.1-8.9c2.9,0,4.7,2.6,4.7,6.6c0,3.7-1.7,6.2-4.5,6.2c-1.3,0-2-0.4-3.5-1.9
		c-1-1-1.7-1.5-2.3-1.5c-1,0-1.8,1-2.1,3c-0.4,1.9-0.7,7.6-0.7,13.5v11.5c0,5.4,0.4,6,3.7,6h0.7v1.7H221v-1.7h0.5
		c2.9,0,3.2-0.6,3.2-5.7V42.7c0-5.1-0.4-5.8-3.2-5.8H221v-1.7h14.7V43L235.8,43z"/>
	<path class="st0" d="M278.8,67c-2.2,8.6-7.7,13.5-15,13.5c-9.4,0-16.2-9.4-16.2-22.7c0-13.5,7.2-23.7,16.7-23.7
		c8.7,0,14.5,8.4,14.5,20.9v0.8h-19.6c0.3,10.9,4.1,17.8,10,17.8c3.2,0,5.8-2.2,8.2-7.3L278.8,67L278.8,67z M268.4,52.5
		c0-1,0.1-1.5,0.1-2.4c0-1.8-0.1-4.1-0.3-5.8c-0.4-4.8-1.7-7-4.2-7c-3.3,0-5,4.5-5,13.4v1.8H268.4L268.4,52.5z"/>
	<path class="st0" d="M293.7,41.2c4.2-5.2,7.4-7.2,11.2-7.2c3.2,0,6,1.7,7.3,4.2c0.8,1.6,1.4,3.3,1.5,5c0.2,2.6,0.3,6.1,0.3,10.4
		v18.2c0,4.8,0.7,5.5,2.9,5.7v1.7h-16.7v-1.7c2.2-0.3,2.8-0.9,2.8-5.7V51.2c0-2.6-0.1-5.8-0.2-6.9c-0.3-2.7-1.2-4-3-4
		c-1.8,0-3.6,1.4-6.2,5v26.6c0,4.8,0.6,5.4,2.7,5.7v1.7h-16.6v-1.7c2.2-0.2,2.9-0.9,2.9-5.7V43c0-5-0.7-5.8-2.9-6.1v-1.7h13.9V41.2
		L293.7,41.2z"/>
	<path class="st0" d="M349.5,67c-2.1,8.6-7.7,13.5-15,13.5c-9.4,0-16.2-9.4-16.2-22.7c0-13.5,7.2-23.7,16.7-23.7
		c8.6,0,14.5,8.4,14.5,20.9v0.8h-19.6c0.3,10.9,4.1,17.8,10,17.8c3.2,0,5.8-2.2,8.2-7.3L349.5,67L349.5,67z M339,52.5
		c0-1,0.1-1.5,0.1-2.4c0-1.8-0.1-4.1-0.3-5.8c-0.4-4.8-1.7-7-4.1-7c-3.3,0-5,4.5-5,13.4v1.8H339L339,52.5z"/>
	<path class="st0" d="M384,71.9c0,5.1,0.9,5.6,3.5,5.7v1.7H373v-5.6h-0.2c-3.3,4.7-6.2,6.8-10.1,6.8c-3.8,0-7.2-2.3-8.6-5.7
		c-1.1-2.8-1.3-5.1-1.3-12.9v-19c0-4.8-0.3-5.4-2.5-5.8v-1.7h13.4v26.4c0,3.6,0.1,7.3,0.2,8.4c0.3,2.8,1.2,4.3,3,4.3
		c2.2,0,4.7-2.2,6.1-5.1V43c0-5.4-0.4-6.1-3.7-6.1h-0.6v-1.7H384V71.9L384,71.9z"/>
	<path class="st0" d="M402.9,43h0.2c1.9-5.7,4.8-8.9,8.1-8.9c2.9,0,4.7,2.6,4.7,6.6c0,3.7-1.7,6.2-4.5,6.2c-1.3,0-2-0.4-3.5-1.9
		c-1-1-1.7-1.5-2.3-1.5c-1,0-1.8,1-2.1,3c-0.4,1.9-0.7,7.6-0.7,13.5v11.5c0,5.4,0.4,6,3.7,6h0.7v1.7h-19.9v-1.7h1.3
		c2.9,0,3.2-0.6,3.2-5.7V42.7c0-5.1-0.4-5.8-3.2-5.8h-0.5v-1.7h14.7V43L402.9,43z"/>
	<path class="st0" d="M65.7,57.7l-3.9,21.6H19.2v-1.7h1.3c1.9,0,3.3-0.6,4.2-1.8c0.8-1.2,1-2.3,1-6.8V20.4c0-4.4-0.2-5.6-1-6.8
		c-0.8-1.2-2.2-1.7-4.2-1.7h-1.3v-1.7h39.4v19.4H57c-0.4-4.7-2-9.6-4.4-12.1c-3-3-5-4-13.6-4h-1.7v29.8c6.9-0.3,9.4-3.5,10.1-13.9
		h1.7v30.9h-1.7c-0.4-10-3.2-13.4-10.1-13.5v21.4c0,6.5,0.8,7.7,5.3,7.7c11.4,0,17.9-6,21.2-18.1l0.1-0.2H65.7L65.7,57.7z"/>
	<path class="st0" d="M78.4,41.2c4.2-5.2,7.3-7.2,11.2-7.2c3.2,0,5.9,1.7,7.3,4.2c0.8,1.6,1.4,3.3,1.5,5c0.2,2.6,0.3,6.1,0.3,10.4
		v18.2c0,4.8,0.7,5.5,2.9,5.7v1.7H85v-1.7c2.2-0.3,2.8-0.9,2.8-5.7V51.2c0-2.6-0.1-5.8-0.2-6.9c-0.3-2.7-1.2-4-3-4
		c-1.8,0-3.6,1.4-6.2,5v26.6c0,4.8,0.6,5.4,2.7,5.7v1.7H64.5v-1.7c2.2-0.2,2.9-0.9,2.9-5.7V43c0-5-0.7-5.8-2.9-6.1v-1.7h13.9V41.2
		L78.4,41.2z"/>
	<path class="st0" d="M127,37.7h-9.4v28.8c0,4.8,0.1,6,0.4,6.9c0.4,0.8,1.4,1.6,2.2,1.6c1.2,0,4.4-1.3,5.8-4.4l1.3,0.9
		c-2,5.4-6.7,9.1-12,9.1c-3.6,0-6.7-2.3-7.8-5.8c-0.4-1.7-0.7-3.4-0.8-5.5c-0.1-2.4-0.1-5.7-0.1-9.3V37.7h-5.3v-2.3
		c5.4-4.3,12.3-9.8,14.9-16.2h1.4v16.1h9.4V37.7L127,37.7z"/>
	<path class="st0" d="M140.4,43h0.2c1.9-5.7,4.9-8.9,8.1-8.9c2.9,0,4.7,2.6,4.7,6.6c0,3.7-1.7,6.2-4.5,6.2c-1.3,0-2-0.4-3.4-1.9
		c-1.1-1-1.7-1.5-2.4-1.5c-1,0-1.7,1-2.1,3c-0.4,1.9-0.6,7.6-0.6,13.5v11.5c0,5.4,0.3,6,3.7,6h0.7v1.7h-19.2v-1.7h0.5
		c2.9,0,3.2-0.6,3.2-5.7V43.5c0-5.1-0.3-5.8-3.2-5.8h-0.5v-2.4h14.8V43L140.4,43z"/>
	<path class="st0" d="M183.4,67c-2.1,8.6-7.6,13.5-14.9,13.5c-9.5,0-16.2-9.4-16.2-22.7c0-13.5,7.2-23.7,16.7-23.7
		c8.6,0,14.5,8.4,14.5,20.9v0.8h-19.6c0.3,10.9,4.2,17.8,10,17.8c3.3,0,5.8-2.2,8.2-7.3L183.4,67L183.4,67z M173,52.5
		c0-1,0.1-1.5,0.1-2.4c0-1.8-0.1-4.1-0.3-5.8c-0.4-4.8-1.7-7-4.1-7c-3.3,0-5,4.5-5,13.4v1.8H173L173,52.5z"/>
	<path class="st0" d="M198.8,40.3h0.2c1.8-4.1,4.8-6.3,8.4-6.3c8,0,13.6,8.8,13.6,22.3c0,14.2-6,24.1-13.8,24.1
		c-2.8,0-4.9-1.2-8.2-4.8l-0.1-0.3h-0.2v16.2c0,5.4,0.3,6,3.7,6h1v1.7H184v-1.7h0.6c2.9,0,3.2-0.6,3.2-5.7V42.7
		c0-5.1-0.3-5.8-3.2-5.8H184v-1.7h14.9V40.3L198.8,40.3z M198.8,71c0.4,0.9,0.9,1.4,1.6,2.3c1.6,1.9,2.6,2.6,3.9,2.5
		c1.3-0.1,2.4-1.3,3-3.4c1-3.6,1.9-8.2,1.9-15.2c0-11.5-2.3-17.6-5.5-17.4c-1.8,0.1-3.5,2-4.8,5.4V71L198.8,71z"/>
	<path class="st0" d="M235.8,43h0.2c1.9-5.7,4.8-8.9,8.1-8.9c2.9,0,4.7,2.6,4.7,6.6c0,3.7-1.7,6.2-4.5,6.2c-1.3,0-2-0.4-3.5-1.9
		c-1-1-1.7-1.5-2.3-1.5c-1,0-1.8,1-2.1,3c-0.4,1.9-0.7,7.6-0.7,13.5v11.5c0,5.4,0.4,6,3.7,6h0.7v1.7H221v-1.7h0.5
		c2.9,0,3.2-0.6,3.2-5.7V42.7c0-5.1-0.4-5.8-3.2-5.8H221v-1.7h14.7V43L235.8,43z"/>
	<path class="st0" d="M278.8,67c-2.2,8.6-7.7,13.5-15,13.5c-9.4,0-16.2-9.4-16.2-22.7c0-13.5,7.2-23.7,16.7-23.7
		c8.7,0,14.5,8.4,14.5,20.9v0.8h-19.6c0.3,10.9,4.1,17.8,10,17.8c3.2,0,5.8-2.2,8.2-7.3L278.8,67L278.8,67z M268.4,52.5
		c0-1,0.1-1.5,0.1-2.4c0-1.8-0.1-4.1-0.3-5.8c-0.4-4.8-1.7-7-4.2-7c-3.3,0-5,4.5-5,13.4v1.8H268.4L268.4,52.5z"/>
	<path class="st0" d="M293.7,41.2c4.2-5.2,7.4-7.2,11.2-7.2c3.2,0,6,1.7,7.3,4.2c0.8,1.6,1.4,3.3,1.5,5c0.2,2.6,0.3,6.1,0.3,10.4
		v18.2c0,4.8,0.7,5.5,2.9,5.7v1.7h-16.7v-1.7c2.2-0.3,2.8-0.9,2.8-5.7V51.2c0-2.6-0.1-5.8-0.2-6.9c-0.3-2.7-1.2-4-3-4
		c-1.8,0-3.6,1.4-6.2,5v26.6c0,4.8,0.6,5.4,2.7,5.7v1.7h-16.6v-1.7c2.2-0.2,2.9-0.9,2.9-5.7V43c0-5-0.7-5.8-2.9-6.1v-1.7h13.9V41.2
		L293.7,41.2z"/>
	<path class="st0" d="M349.5,67c-2.1,8.6-7.7,13.5-15,13.5c-9.4,0-16.2-9.4-16.2-22.7c0-13.5,7.2-23.7,16.7-23.7
		c8.6,0,14.5,8.4,14.5,20.9v0.8h-19.6c0.3,10.9,4.1,17.8,10,17.8c3.2,0,5.8-2.2,8.2-7.3L349.5,67L349.5,67z M339,52.5
		c0-1,0.1-1.5,0.1-2.4c0-1.8-0.1-4.1-0.3-5.8c-0.4-4.8-1.7-7-4.1-7c-3.3,0-5,4.5-5,13.4v1.8H339L339,52.5z"/>
	<path class="st0" d="M384,71.9c0,5.1,0.9,5.6,3.5,5.7v1.7H373v-5.6h-0.2c-3.3,4.7-6.2,6.8-10.1,6.8c-3.8,0-7.2-2.3-8.6-5.7
		c-1.1-2.8-1.3-5.1-1.3-12.9v-19c0-4.8-0.3-5.4-2.5-5.8v-1.7h13.4v26.4c0,3.6,0.1,7.3,0.2,8.4c0.3,2.8,1.2,4.3,3,4.3
		c2.2,0,4.7-2.2,6.1-5.1V43c0-5.4-0.4-6.1-3.7-6.1h-0.6v-1.7H384V71.9L384,71.9z"/>
	<path class="st0" d="M402.9,43h0.2c1.9-5.7,4.8-8.9,8.1-8.9c2.9,0,4.7,2.6,4.7,6.6c0,3.7-1.7,6.2-4.5,6.2c-1.3,0-2-0.4-3.5-1.9
		c-1-1-1.7-1.5-2.3-1.5c-1,0-1.8,1-2.1,3c-0.4,1.9-0.7,7.6-0.7,13.5v11.5c0,5.4,0.4,6,3.7,6h0.7v1.7h-19.9v-1.7h1.3
		c2.9,0,3.2-0.6,3.2-5.7V42.7c0-5.1-0.4-5.8-3.2-5.8h-0.5v-1.7h14.7V43L402.9,43z"/>
	<path class="st0" d="M65.7,57.7l-3.9,21.6H19.2v-1.7h1.3c1.9,0,3.3-0.6,4.2-1.8c0.8-1.2,1-2.3,1-6.8V20.4c0-4.4-0.2-5.6-1-6.8
		c-0.8-1.2-2.2-1.7-4.2-1.7h-1.3v-1.7h39.4v19.4H57c-0.4-4.7-2-9.6-4.4-12.1c-3-3-5-4-13.6-4h-1.7v29.8c6.9-0.3,9.4-3.5,10.1-13.9
		h1.7v30.9h-1.7c-0.4-10-3.2-13.4-10.1-13.5v21.4c0,6.5,0.8,7.7,5.3,7.7c11.4,0,17.9-6,21.2-18.1l0.1-0.2H65.7L65.7,57.7z"/>
	<path class="st0" d="M78.4,41.2c4.2-5.2,7.3-7.2,11.2-7.2c3.2,0,5.9,1.7,7.3,4.2c0.8,1.6,1.4,3.3,1.5,5c0.2,2.6,0.3,6.1,0.3,10.4
		v18.2c0,4.8,0.7,5.5,2.9,5.7v1.7H85v-1.7c2.2-0.3,2.8-0.9,2.8-5.7V51.2c0-2.6-0.1-5.8-0.2-6.9c-0.3-2.7-1.2-4-3-4
		c-1.8,0-3.6,1.4-6.2,5v26.6c0,4.8,0.6,5.4,2.7,5.7v1.7H64.5v-1.7c2.2-0.2,2.9-0.9,2.9-5.7V43c0-5-0.7-5.8-2.9-6.1v-1.7h13.9V41.2
		L78.4,41.2z"/>
	<path class="st0" d="M127,37.7h-9.4v28.8c0,4.8,0.1,6,0.4,6.9c0.4,0.8,1.4,1.6,2.2,1.6c1.2,0,4.4-1.3,5.8-4.4l1.3,0.9
		c-2,5.4-6.7,9.1-12,9.1c-3.6,0-6.7-2.3-7.8-5.8c-0.4-1.7-0.7-3.4-0.8-5.5c-0.1-2.4-0.1-5.7-0.1-9.3V37.7h-5.3v-2.3
		c5.4-4.3,12.3-9.8,14.9-16.2h1.4v16.1h9.4V37.7L127,37.7z"/>
	<path class="st0" d="M140.4,43h0.2c1.9-5.7,4.9-8.9,8.1-8.9c2.9,0,4.7,2.6,4.7,6.6c0,3.7-1.7,6.2-4.5,6.2c-1.3,0-2-0.4-3.4-1.9
		c-1.1-1-1.7-1.5-2.4-1.5c-1,0-1.7,1-2.1,3c-0.4,1.9-0.6,7.6-0.6,13.5v11.5c0,5.4,0.3,6,3.7,6h0.7v1.7h-19.2v-1.7h0.5
		c2.9,0,3.2-0.6,3.2-5.7V43.5c0-5.1-0.3-5.8-3.2-5.8h-0.5v-2.4h14.8V43L140.4,43z"/>
	<path class="st0" d="M183.4,67c-2.1,8.6-7.6,13.5-14.9,13.5c-9.5,0-16.2-9.4-16.2-22.7c0-13.5,7.2-23.7,16.7-23.7
		c8.6,0,14.5,8.4,14.5,20.9v0.8h-19.6c0.3,10.9,4.2,17.8,10,17.8c3.3,0,5.8-2.2,8.2-7.3L183.4,67L183.4,67z M173,52.5
		c0-1,0.1-1.5,0.1-2.4c0-1.8-0.1-4.1-0.3-5.8c-0.4-4.8-1.7-7-4.1-7c-3.3,0-5,4.5-5,13.4v1.8H173L173,52.5z"/>
	<path class="st0" d="M198.8,40.3h0.2c1.8-4.1,4.8-6.3,8.4-6.3c8,0,13.6,8.8,13.6,22.3c0,14.2-6,24.1-13.8,24.1
		c-2.8,0-4.9-1.2-8.2-4.8l-0.1-0.3h-0.2v16.2c0,5.4,0.3,6,3.7,6h1v1.7H184v-1.7h0.6c2.9,0,3.2-0.6,3.2-5.7V42.7
		c0-5.1-0.3-5.8-3.2-5.8H184v-1.7h14.9V40.3L198.8,40.3z M198.8,71c0.4,0.9,0.9,1.4,1.6,2.3c1.6,1.9,2.6,2.6,3.9,2.5
		c1.3-0.1,2.4-1.3,3-3.4c1-3.6,1.9-8.2,1.9-15.2c0-11.5-2.3-17.6-5.5-17.4c-1.8,0.1-3.5,2-4.8,5.4V71L198.8,71z"/>
	<path class="st0" d="M235.8,43h0.2c1.9-5.7,4.8-8.9,8.1-8.9c2.9,0,4.7,2.6,4.7,6.6c0,3.7-1.7,6.2-4.5,6.2c-1.3,0-2-0.4-3.5-1.9
		c-1-1-1.7-1.5-2.3-1.5c-1,0-1.8,1-2.1,3c-0.4,1.9-0.7,7.6-0.7,13.5v11.5c0,5.4,0.4,6,3.7,6h0.7v1.7H221v-1.7h0.5
		c2.9,0,3.2-0.6,3.2-5.7V42.7c0-5.1-0.4-5.8-3.2-5.8H221v-1.7h14.7V43L235.8,43z"/>
	<path class="st0" d="M278.8,67c-2.2,8.6-7.7,13.5-15,13.5c-9.4,0-16.2-9.4-16.2-22.7c0-13.5,7.2-23.7,16.7-23.7
		c8.7,0,14.5,8.4,14.5,20.9v0.8h-19.6c0.3,10.9,4.1,17.8,10,17.8c3.2,0,5.8-2.2,8.2-7.3L278.8,67L278.8,67z M268.4,52.5
		c0-1,0.1-1.5,0.1-2.4c0-1.8-0.1-4.1-0.3-5.8c-0.4-4.8-1.7-7-4.2-7c-3.3,0-5,4.5-5,13.4v1.8H268.4L268.4,52.5z"/>
	<path class="st0" d="M293.7,41.2c4.2-5.2,7.4-7.2,11.2-7.2c3.2,0,6,1.7,7.3,4.2c0.8,1.6,1.4,3.3,1.5,5c0.2,2.6,0.3,6.1,0.3,10.4
		v18.2c0,4.8,0.7,5.5,2.9,5.7v1.7h-16.7v-1.7c2.2-0.3,2.8-0.9,2.8-5.7V51.2c0-2.6-0.1-5.8-0.2-6.9c-0.3-2.7-1.2-4-3-4
		c-1.8,0-3.6,1.4-6.2,5v26.6c0,4.8,0.6,5.4,2.7,5.7v1.7h-16.6v-1.7c2.2-0.2,2.9-0.9,2.9-5.7V43c0-5-0.7-5.8-2.9-6.1v-1.7h13.9V41.2
		L293.7,41.2z"/>
	<path class="st0" d="M349.5,67c-2.1,8.6-7.7,13.5-15,13.5c-9.4,0-16.2-9.4-16.2-22.7c0-13.5,7.2-23.7,16.7-23.7
		c8.6,0,14.5,8.4,14.5,20.9v0.8h-19.6c0.3,10.9,4.1,17.8,10,17.8c3.2,0,5.8-2.2,8.2-7.3L349.5,67L349.5,67z M339,52.5
		c0-1,0.1-1.5,0.1-2.4c0-1.8-0.1-4.1-0.3-5.8c-0.4-4.8-1.7-7-4.1-7c-3.3,0-5,4.5-5,13.4v1.8H339L339,52.5z"/>
	<path class="st0" d="M384,71.9c0,5.1,0.9,5.6,3.5,5.7v1.7H373v-5.6h-0.2c-3.3,4.7-6.2,6.8-10.1,6.8c-3.8,0-7.2-2.3-8.6-5.7
		c-1.1-2.8-1.3-5.1-1.3-12.9v-19c0-4.8-0.3-5.4-2.5-5.8v-1.7h13.4v26.4c0,3.6,0.1,7.3,0.2,8.4c0.3,2.8,1.2,4.3,3,4.3
		c2.2,0,4.7-2.2,6.1-5.1V43c0-5.4-0.4-6.1-3.7-6.1h-0.6v-1.7H384V71.9L384,71.9z"/>
	<path class="st0" d="M402.9,43h0.2c1.9-5.7,4.8-8.9,8.1-8.9c2.9,0,4.7,2.6,4.7,6.6c0,3.7-1.7,6.2-4.5,6.2c-1.3,0-2-0.4-3.5-1.9
		c-1-1-1.7-1.5-2.3-1.5c-1,0-1.8,1-2.1,3c-0.4,1.9-0.7,7.6-0.7,13.5v11.5c0,5.4,0.4,6,3.7,6h0.7v1.7h-19.9v-1.7h1.3
		c2.9,0,3.2-0.6,3.2-5.7V42.7c0-5.1-0.4-5.8-3.2-5.8h-0.5v-1.7h14.7V43L402.9,43z"/>
</g>
</svg>
