<?xml version="1.0" encoding="utf-8"?>
<!-- Generator: Adobe Illustrator 18.1.1, SVG Export Plug-In . SVG Version: 6.00 Build 0)  -->
<svg version="1.1" xmlns="http://www.w3.org/2000/svg" xmlns:xlink="http://www.w3.org/1999/xlink" x="0px" y="0px"
	 viewBox="0 0 606.1 200" style="enable-background:new 0 0 606.1 200;" xml:space="preserve">
<g id="Layer_1">
	<path style="fill:#E10E1B;" d="M324.5,100.3c0-27.3,0-54.5,0-81.8c0-1.1,0-2.1,0-3.2c0-0.8,0.5-1.4,1.3-1.4c1.1,0,2.1,0,3.2,0
		c12.8,0,25.5,0,38.3,0c10.2,0,20.4,0,30.5,0c5,0,10.1,0.1,15.1,0.5c7.4,0.6,14.6,1.8,21.6,4.4c12.8,4.8,22.9,13,30.3,24.5
		c4.5,6.9,7.7,14.4,9.8,22.4c1.9,7.1,3.1,14.4,3.7,21.8c0.7,8.8,0.6,17.5,0,26.3c-0.3,4.7-0.8,9.3-1.6,13.9
		c-2.4,14.2-8.3,26.7-18.1,37.4c-4.9,5.4-10.6,9.9-17.2,13.2c-2.6,1.3-5.3,2.4-8.1,3.2c-8.5,2.4-17.1,4.1-25.8,4.8
		c-1.6,0.1-3.3,0.2-4.9,0.2c-24.9,0-49.9,0-74.8,0c-0.5,0-0.9,0-1.4,0c-1.6,0-1.8-0.3-1.8-1.8c0-1.1,0-2.1,0-3.2
		C324.5,154.4,324.5,127.4,324.5,100.3z M376.3,100.1c0,14.3,0,28.6,0,42.8c0,1.1,0,2.1,0.1,3.2c0,0.5,0.4,0.9,0.9,0.9
		c0.6,0,1.2,0.1,1.7,0.1c3.9,0,7.7,0,11.6,0c3.9,0,7.7-0.3,11.5-0.8c2.1-0.3,4.1-0.8,6.2-1.4c3.4-1,6.4-2.8,8.9-5.5
		c1.6-1.7,2.9-3.6,4.1-5.7c2.2-3.9,3.4-8.2,4.1-12.6c0.8-5.1,1.2-10.2,1.3-15.4c0.1-5.7,0.1-11.5-0.5-17.2
		c-0.3-3.6-0.8-7.2-1.6-10.8c-0.7-3.3-1.8-6.5-3.3-9.6c-1.8-3.6-4.3-6.7-7.6-9c-2.6-1.8-5.5-3.1-8.5-4.1c-4.2-1.3-8.5-1.9-12.8-2
		c-4.8-0.1-9.6-0.1-14.4-0.1c-0.2,0-0.5,0-0.7,0.1c-0.4,0-0.8,0.5-0.9,0.9c0,1.1-0.1,2.1-0.1,3.2C376.3,71.5,376.3,85.8,376.3,100.1
		z"/>
	<path style="fill:#E10E1B;" d="M177.6,100.4c0-27.4,0-54.8,0-82.2c0-0.6,0-1.2,0-1.8c0-2.5,0.1-2.6,2.6-2.6c11.5,0,22.9,0,34.4,0
		c28.4,0,56.9,0,85.3,0c4.9,0,9.8,0,14.7,0c4.4,0,4-0.4,4,3.9c0,9.8,0,19.7,0,29.5c0,0.9,0,1.9-0.1,2.8c0,0.3-0.4,0.6-0.7,0.7
		c-1,0.1-2.1,0.1-3.2,0.1c-9.7,0-19.4,0-29.1,0c-17.6,0-35.1,0-52.7,0c-3.4,0-3.3-0.2-3.3,3.2c0,7,0,14,0,21.1c0,0.7,0,1.4,0.1,2.1
		c0,0.4,0.5,0.9,0.9,0.9c0.3,0,0.7,0.1,1,0.1c0.9,0,1.9,0,2.8,0c23.6,0,47.3,0,70.9,0c3.6,0,7.3,0,10.9,0c0.6,0,1.2,0,1.7,0.1
		c0.2,0,0.5,0.3,0.5,0.5c0.1,0.7,0.1,1.4,0.1,2.1c0,5,0,10.1,0,15.1c0,5.1,0,10.3,0,15.4c0,0.7,0,1.4-0.1,2.1c0,0.3-0.4,0.6-0.6,0.7
		c-0.3,0.1-0.7,0.1-1,0.1c-1.1,0-2.1,0-3.2,0c-26.5,0-52.9,0-79.4,0c-1.2,0-2.3,0-3.5,0c-0.8,0-1.2,0.5-1.3,1.4c0,0.6,0,1.2,0,1.8
		c0,8.9,0,17.8,0,26.7c0,0.6,0,1.2,0,1.8c0,0.7,0.4,1.2,1,1.2c0.3,0,0.7,0,1.1,0c0.9,0,1.9,0,2.8,0c26.6,0,53.1,0,79.7,0
		c1.1,0,2.1,0,3.2,0c1.2,0,1.6,0.4,1.6,1.7c0,0.6,0,1.2,0,1.8c0,10.8,0,21.5,0,32.3c0,0.7,0,1.4,0,2.1c0,0.8-0.5,1.2-1.4,1.2
		c-0.4,0-0.7,0-1.1,0c-0.7,0-1.4,0-2.1,0c-44.1,0-88.2,0-132.4,0c-1.1,0-2.1,0-3.2,0c-0.8,0-1.2-0.5-1.2-1.4c0-1.2,0-2.3,0-3.5
		C177.6,154.5,177.6,127.5,177.6,100.4z"/>
	<path style="fill:#E10E1B;" d="M93.6,13.9c24.7,0,49.4,0,74.1,0c4.8,0,4.3-0.6,4.3,4.3c0,11.5,0,22.9,0,34.4c0,1.1,0,2.1-0.1,3.2
		c0,0.3-0.3,0.7-0.7,0.7c-1,0.1-2.1,0.1-3.1,0.1c-14.6,0-29.3,0-43.9,0c-5.8,0-5-0.8-5,5c0,39.9,0,79.8,0,119.8c0,1.1,0,2.1,0,3.2
		c0,1.6-0.2,1.9-2.1,1.9c-10.2,0-20.4,0-30.6,0c-5.3,0-10.5,0-15.8,0c-0.8,0-1.6,0-2.4-0.1c-0.4,0-0.7-0.3-0.7-0.6
		c-0.1-1-0.1-2.1-0.1-3.1c0-13.2,0-26.5,0-39.7c0-27.3,0-54.6,0-81.8c0-1.2-0.1-2.3-0.1-3.5c0-0.4-0.5-0.9-1-0.9
		c-1.1,0-2.1-0.1-3.2-0.1c-14.9,0-29.7,0-44.6,0c-4.4,0-4,0.4-4-3.9c0-11.7,0-23.4,0-35.1c0-0.9,0.1-1.9,0.1-2.8
		c0-0.4,0.4-0.6,0.7-0.7c0.3-0.1,0.7-0.1,1-0.1c0.9,0,1.9,0,2.8,0C44,13.9,68.8,13.9,93.6,13.9z"/>
	<path style="fill:#E10E1B;" d="M507.1,14.4c6,0,11.9,0,17.9,0c0.9,0,1.5,0.4,1.9,1.2c2,3.7,4.1,7.4,6.1,11c2,3.7,4.1,7.4,6.2,11
		c0.2,0.4,0.8,0.5,1.1,0c0.7-1.1,1.4-2.1,2.1-3.2c3.6-5.6,7.2-11.2,10.8-16.8c0.4-0.6,0.8-1.2,1.1-1.8c0.6-1,1.3-1.6,2.5-1.5
		c0.3,0,0.7,0,1.1,0c10.2,0,20.4,0,30.5,0c0.2,0,0.5,0,0.7,0c0.4,0,1-0.2,1.3,0.3c0.4,0.6-0.2,1.1-0.5,1.5c-0.6,1-1.3,1.9-2,2.9
		c-7.9,11.4-15.9,22.9-23.8,34.3c-0.3,0.5-0.7,1-1,1.4c-0.5,0.7-0.7,1.4-0.1,2.2c0.7,0.9,1.3,1.9,2,2.9
		c8.5,12.6,17.1,25.2,25.6,37.8c0.7,1,1.3,2,1.9,3c0.1,0.2-0.2,0.8-0.4,0.8c-0.5,0-0.9,0.1-1.4,0.1c-11.1,0-22.2,0-33.3,0
		c-0.4,0-0.7,0-1.1,0c-0.6,0-1.1-0.3-1.5-0.8c-0.5-0.9-1.1-1.8-1.6-2.7c-3.8-6.8-7.6-13.7-11.4-20.5c-0.6-1-1.2-2-1.9-3
		c-0.1-0.1-0.5-0.2-0.6-0.1c-0.5,0.6-1,1.3-1.5,1.9c-4.6,6.9-9.1,13.9-13.7,20.8c-3.6,5.4-1.6,4.3-8,4.4c-8.7,0.1-17.3,0-26,0
		c-1,0-2.1-0.1-3.1-0.1c-0.3,0-0.5-0.5-0.4-0.8c0.6-1,1.2-2,1.9-3c8.7-12.9,17.4-25.8,26.1-38.7c0.5-0.8,1-1.6,1.6-2.3
		c0.3-0.4,0.3-0.9,0.1-1.3c-0.6-1-1.3-1.9-2-2.9c-8.3-11.8-16.5-23.5-24.8-35.3c-0.3-0.5-0.7-0.9-1-1.4c-0.2-0.3-0.3-0.6-0.3-1
		c0-0.5,0.5-0.4,0.8-0.4c2,0,4,0,6,0C499.1,14.4,503.1,14.4,507.1,14.4C507.1,14.4,507.1,14.4,507.1,14.4z"/>
</g>
<g id="Layer_2">
</g>
</svg>
